<svg width="30" height="25" viewBox="0 0 30 25" fill="none" xmlns="http://www.w3.org/2000/svg">
<g clip-path="url(#clip0_136_2065)">
<path d="M15.0104 22.7881C14.9983 22.7869 14.9865 22.7853 14.9745 22.7841C14.7792 22.1125 14.5843 21.4408 14.3891 20.7695C13.9271 19.1804 13.4654 17.5917 13.0028 16.0029C12.9283 15.7469 12.7331 15.5876 12.4878 15.5873C9.35981 15.5867 6.23187 15.5867 3.10393 15.5876C2.85257 15.5876 2.69475 15.708 2.62384 15.949C1.80308 18.747 0.981116 21.5447 0.169106 24.3451C0.135008 24.4631 0.160355 24.6258 0.215274 24.7389C0.330542 24.9761 0.558665 25.0001 0.79735 24.9998C10.0505 24.9974 19.3037 24.9977 28.5569 24.9977C28.8284 24.9977 29.1003 25.0047 29.3713 24.9937C29.686 24.981 29.906 24.6498 29.8176 24.3491C29.6214 23.6831 29.4268 23.0164 29.2358 22.3488C28.6317 20.2375 28.0294 18.1256 27.4265 16.0137C27.3511 15.7493 27.1555 15.587 26.9042 15.587C23.7814 15.5863 20.6582 15.5863 17.5354 15.587C17.2669 15.587 17.1208 15.701 17.0415 15.9678C16.4687 17.8911 15.8969 19.8151 15.3248 21.7385C15.2207 22.0884 15.1154 22.4378 15.0107 22.7875L15.0104 22.7881ZM14.9805 14.1461C16.2225 14.1461 17.4645 14.1461 18.7062 14.1461C19.8426 14.1461 20.979 14.1402 22.1154 14.1491C22.4482 14.1516 22.6619 13.8796 22.6217 13.5693C22.6109 13.4849 22.5683 13.4051 22.5442 13.3219C21.7569 10.6154 20.9699 7.90861 20.1833 5.2018C20.0747 4.8284 19.96 4.73721 19.5831 4.73721C18.3562 4.73659 17.1293 4.7369 15.9027 4.7369C14.0674 4.7369 12.2322 4.73659 10.3969 4.7369C10.0321 4.7369 9.91141 4.83179 9.8055 5.1944C9.41835 6.51762 9.0306 7.84053 8.64316 9.16344C8.22402 10.5942 7.80429 12.0249 7.38637 13.4563C7.31485 13.7015 7.39753 13.9828 7.58914 14.0774C7.69174 14.1282 7.81998 14.143 7.93646 14.143C10.2847 14.1467 12.6326 14.1458 14.9808 14.1461H14.9805ZM20.1951 1.35508C20.1914 1.05192 20.0188 0.835339 19.7771 0.794672C19.5246 0.752157 19.3308 0.87539 19.2415 1.1502C19.0695 1.67795 18.9018 2.20723 18.7382 2.73806C18.7153 2.812 18.7107 2.90134 18.7273 2.97682C18.778 3.20758 18.9787 3.36285 19.2204 3.3761C19.4307 3.3875 19.6169 3.24455 19.6948 3.00116C19.8532 2.50638 20.0083 2.01037 20.1628 1.51435C20.1824 1.45181 20.1893 1.38527 20.1954 1.35508H20.1951ZM15.45 1.33659H15.4543C15.4543 1.02882 15.4609 0.72104 15.4518 0.413574C15.4461 0.220714 15.3396 0.0888544 15.1582 0.028162C14.8502 -0.0753538 14.5553 0.118738 14.5315 0.449311C14.5179 0.638166 14.5261 0.82887 14.5258 1.01865C14.5252 1.38804 14.5267 1.75743 14.5258 2.12682C14.5252 2.31013 14.5692 2.47188 14.7225 2.58556C15.0044 2.79413 15.415 2.62838 15.4449 2.27439C15.4709 1.96385 15.4503 1.64929 15.4503 1.33659H15.45ZM29.4811 10.7787C29.4654 10.7824 29.4159 10.7901 29.3689 10.8052C28.8161 10.9842 28.2633 11.1638 27.7111 11.3453C27.5843 11.3869 27.4944 11.4728 27.4573 11.6068C27.3619 11.9513 27.7147 12.3481 28.0499 12.248C28.6066 12.0819 29.157 11.8937 29.7056 11.7011C29.9208 11.6256 30.0354 11.3745 29.9911 11.1493C29.9503 10.942 29.7376 10.7762 29.4811 10.7787ZM10.2832 0.737677C9.99319 0.736445 9.74877 1.03898 9.83296 1.32735C9.9956 1.88498 10.1715 2.43891 10.3541 2.99007C10.4365 3.23869 10.7286 3.37733 10.9521 3.29908C11.196 3.21405 11.3302 2.94047 11.2485 2.67829C11.0828 2.14808 10.9138 1.6191 10.7421 1.09105C10.6703 0.869844 10.4926 0.738601 10.2832 0.737677ZM0.530904 10.7787C0.236698 10.7762 0.0414657 10.9303 0.00555744 11.1333C-0.0321613 11.3468 0.127163 11.6531 0.330542 11.7224C0.8577 11.902 1.38637 12.0776 1.91775 12.244C2.19264 12.3302 2.44581 12.1632 2.50827 11.8761C2.56319 11.6247 2.43314 11.4047 2.16126 11.3117C1.77683 11.1805 1.38969 11.0575 1.00345 10.9315C0.822999 10.8727 0.64225 10.8148 0.530603 10.7787H0.530904ZM2.63259 6.38114C2.42861 6.40486 2.28166 6.50468 2.21135 6.68491C2.13863 6.8713 2.18389 7.10606 2.32783 7.23792C2.4096 7.31278 2.50284 7.37532 2.59216 7.44156C2.96995 7.72192 3.34684 8.00412 3.72734 8.28047C3.93555 8.43174 4.21286 8.38429 4.35679 8.18312C4.51763 7.95822 4.4959 7.67077 4.29705 7.52228C3.84322 7.18308 3.38757 6.84604 2.92771 6.51516C2.8411 6.45292 2.73157 6.42458 2.63259 6.38052V6.38114ZM23.0481 5.31117C23.1009 5.2782 23.2273 5.23969 23.2916 5.15312C23.6426 4.67867 23.9832 4.19622 24.317 3.70914C24.4742 3.47961 24.4265 3.21312 24.2273 3.06648C24.0206 2.91459 23.715 2.96019 23.5514 3.16968C23.4953 3.24177 23.4446 3.31849 23.3918 3.39335C23.1269 3.76706 22.8583 4.1383 22.5988 4.51601C22.4881 4.67683 22.4292 4.85983 22.527 5.05053C22.6208 5.23322 22.7925 5.28683 23.0481 5.31117ZM27.7817 6.86883C27.7461 6.77579 27.7264 6.67166 27.6721 6.59218C27.5312 6.38514 27.2201 6.36111 26.9835 6.53364C26.555 6.84634 26.1263 7.15843 25.7062 7.48284C25.6211 7.54877 25.5532 7.65999 25.5161 7.76443C25.4428 7.97054 25.5252 8.1711 25.7056 8.30019C25.8734 8.42034 26.0436 8.40771 26.2298 8.26938C26.6676 7.94374 27.106 7.61902 27.5466 7.29707C27.6893 7.19263 27.7521 7.05184 27.7814 6.86853L27.7817 6.86883ZM5.53181 3.43125C5.56319 3.52675 5.57526 3.63643 5.62958 3.71561C5.95547 4.18882 6.28558 4.65957 6.62626 5.122C6.77381 5.32195 7.07617 5.3506 7.26567 5.21042C7.44581 5.07733 7.50737 4.75723 7.37098 4.55914C7.04177 4.08192 6.70532 3.60993 6.36494 3.14072C6.25028 2.98299 6.02547 2.93893 5.82994 3.01194C5.65613 3.07695 5.55354 3.22822 5.53181 3.43094V3.43125Z" fill="white"/>
<path d="M15.0104 22.7879C15.1151 22.4382 15.2204 22.0885 15.3245 21.7389C15.8969 19.8152 16.4687 17.8915 17.0411 15.9682C17.1205 15.7014 17.2666 15.5874 17.5351 15.5874C20.6579 15.5864 23.781 15.5864 26.9038 15.5874C27.1552 15.5874 27.3507 15.7497 27.4262 16.0141C28.0294 18.1257 28.6314 20.2376 29.2355 22.3492C29.4265 23.0168 29.6211 23.6835 29.8172 24.3495C29.906 24.6502 29.686 24.9814 29.371 24.9941C29.0997 25.0048 28.8278 24.9981 28.5565 24.9981C19.3034 24.9981 10.0502 24.9981 0.797027 25.0002C0.558343 25.0002 0.33022 24.9762 0.214951 24.7393C0.160033 24.6265 0.134686 24.4638 0.168783 24.3455C0.980793 21.5451 1.80276 18.7474 2.62352 15.9494C2.69413 15.7081 2.85225 15.588 3.10361 15.588C6.23155 15.5871 9.35949 15.5871 12.4874 15.5877C12.7325 15.5877 12.928 15.7473 13.0025 16.0033C13.4651 17.5921 13.9268 19.1811 14.3888 20.7699C14.584 21.4416 14.7789 22.1129 14.9742 22.7845C14.9862 22.7857 14.9983 22.7866 15.0104 22.7879Z" fill="#FFB547"/>
<path d="M14.9804 14.1459C12.6322 14.1459 10.2843 14.1465 7.93604 14.1431C7.81926 14.1431 7.69132 14.128 7.58872 14.0775C7.39711 13.9826 7.31413 13.7017 7.38595 13.4564C7.80387 12.0251 8.22361 10.5946 8.64274 9.1636C9.03019 7.84069 9.41793 6.51747 9.80508 5.19456C9.9113 4.83195 10.0317 4.73706 10.3965 4.73706C12.2318 4.73706 14.067 4.73706 15.9022 4.73706C17.1292 4.73706 18.3561 4.73706 19.5827 4.73737C19.9599 4.73737 20.0745 4.82887 20.1829 5.20196C20.9695 7.90877 21.7565 10.6153 22.5438 13.3221C22.5679 13.4053 22.6104 13.4851 22.6213 13.5695C22.6614 13.8797 22.4478 14.1521 22.115 14.1493C20.9786 14.1404 19.8422 14.1462 18.7058 14.1462C17.4638 14.1462 16.2218 14.1462 14.9801 14.1462L14.9804 14.1459Z" fill="#FFB547"/>
<path d="M20.1947 1.35499C20.1886 1.38487 20.1817 1.45173 20.1621 1.51427C20.0076 2.01028 19.8525 2.50629 19.6941 3.00108C19.6162 3.24446 19.4303 3.38741 19.2197 3.37601C18.978 3.36277 18.7774 3.20749 18.7267 2.97674C18.7101 2.90126 18.7149 2.81222 18.7375 2.73797C18.9011 2.20745 19.0688 1.67817 19.2408 1.15011C19.3302 0.875304 19.5239 0.752071 19.7765 0.794586C20.0185 0.835253 20.1908 1.05184 20.1944 1.35499H20.1947Z" fill="#FFB547"/>
<path d="M15.4493 1.33635C15.4493 1.64905 15.4698 1.9636 15.4438 2.27415C15.4143 2.62783 15.0033 2.79389 14.7215 2.58531C14.5679 2.47163 14.5241 2.30989 14.5247 2.12658C14.5259 1.75719 14.5247 1.3878 14.5247 1.0184C14.5247 0.828625 14.5169 0.637922 14.5304 0.449067C14.5543 0.118494 14.8491 -0.075598 15.1572 0.0279179C15.3382 0.0886102 15.4451 0.220162 15.4508 0.41333C15.4598 0.720796 15.4532 1.02857 15.4532 1.33635H15.449H15.4493Z" fill="#FFB547"/>
<path d="M29.4812 10.7786C29.7377 10.7761 29.9504 10.9419 29.9911 11.1492C30.0355 11.3741 29.9208 11.6255 29.7057 11.701C29.1571 11.8935 28.6067 12.0818 28.05 12.2478C27.7144 12.348 27.3617 11.9512 27.4573 11.6067C27.4944 11.4727 27.5844 11.3871 27.7111 11.3452C28.2633 11.1637 28.8161 10.9844 29.3689 10.8051C29.416 10.7897 29.4655 10.7823 29.4812 10.7786Z" fill="#FFB547"/>
<path d="M10.2834 0.737553C10.4928 0.738477 10.6705 0.86972 10.7423 1.09092C10.914 1.61898 11.083 2.14796 11.2487 2.67817C11.3307 2.94035 11.1961 3.21392 10.9523 3.29895C10.7287 3.37721 10.4366 3.23857 10.3543 2.98995C10.1717 2.43879 9.99578 1.88485 9.83314 1.32722C9.74925 1.03917 9.99337 0.73632 10.2834 0.737553Z" fill="#FFB547"/>
<path d="M0.530603 10.7786C0.642552 10.8146 0.822999 10.8726 1.00345 10.9314C1.38969 11.0574 1.77683 11.1803 2.16126 11.3116C2.43314 11.4043 2.56319 11.6246 2.50827 11.876C2.44581 12.1631 2.19264 12.3298 1.91775 12.2438C1.38637 12.0775 0.8577 11.9019 0.330542 11.7223C0.127163 11.6529 -0.0321613 11.3467 0.00555744 11.1332C0.0414657 10.9302 0.236698 10.7761 0.530904 10.7786H0.530603Z" fill="#FFB547"/>
<path d="M2.63227 6.3811C2.73124 6.42516 2.84108 6.4535 2.92738 6.51574C3.38725 6.84631 3.84289 7.18335 4.29672 7.52286C4.49558 7.67135 4.5173 7.9588 4.35647 8.1837C4.21253 8.38487 3.93492 8.43201 3.72702 8.28105C3.34651 8.0047 2.96963 7.7225 2.59183 7.44214C2.50252 7.3759 2.40928 7.31336 2.3275 7.2385C2.18326 7.10664 2.1383 6.87188 2.21103 6.68549C2.28133 6.50526 2.42829 6.40544 2.63227 6.38172V6.3811Z" fill="#FFB547"/>
<path d="M23.0483 5.31101C22.7927 5.28667 22.621 5.23337 22.5271 5.05037C22.4294 4.85967 22.4882 4.67667 22.599 4.51585C22.8585 4.13814 23.127 3.76721 23.392 3.39319C23.4451 3.31833 23.4955 3.24162 23.5516 3.16953C23.7148 2.96003 24.0205 2.91413 24.2275 3.06632C24.4267 3.21266 24.4743 3.47946 24.3171 3.70898C23.9834 4.19606 23.6427 4.67882 23.2918 5.15296C23.2278 5.23953 23.1014 5.27805 23.0483 5.31101Z" fill="#FFB547"/>
<path d="M27.7822 6.86882C27.7529 7.05213 27.6901 7.19293 27.5474 7.29737C27.1072 7.61931 26.6687 7.94403 26.2306 8.26968C26.0444 8.40831 25.8742 8.42064 25.7064 8.30048C25.526 8.1714 25.4436 7.97053 25.5169 7.76473C25.5541 7.66029 25.6216 7.54907 25.707 7.48314C26.1268 7.15873 26.5559 6.84664 26.9844 6.53394C27.2209 6.36141 27.5317 6.38544 27.6729 6.59247C27.7273 6.67227 27.7469 6.77609 27.7825 6.86913L27.7822 6.86882Z" fill="#FFB547"/>
<path d="M5.53125 3.4311C5.55298 3.22807 5.65557 3.07711 5.82938 3.0121C6.02491 2.93909 6.24972 2.98284 6.36438 3.14088C6.70476 3.60978 7.04121 4.08207 7.37042 4.5593C7.50711 4.75739 7.44555 5.07718 7.26511 5.21058C7.07561 5.35076 6.77325 5.3218 6.6257 5.12216C6.28472 4.66004 5.95491 4.18929 5.62902 3.71576C5.5747 3.63659 5.56263 3.52691 5.53125 3.4314V3.4311Z" fill="#FFB547"/>
</g>
<defs>
<clipPath id="clip0_136_2065">
<rect width="30" height="25" fill="white"/>
</clipPath>
</defs>
</svg>
