<svg width="28" height="28" viewBox="0 0 28 28" fill="none" xmlns="http://www.w3.org/2000/svg">
<path d="M27.1067 23.6381H14.8736C14.3914 23.6381 14 23.2457 14 22.762V5.23889C14 4.7552 14.3914 4.36279 14.8736 4.36279H27.1067C27.5891 4.36279 27.9805 4.7552 27.9805 5.23889V22.762C27.9806 23.2457 27.5892 23.6381 27.1067 23.6381Z" fill="#F1F5F7"/>
<path d="M18.3689 9.61943H14.8736C14.3914 9.61943 14 9.22691 14 8.74322C14 8.25965 14.3914 7.86719 14.8736 7.86719H18.3689C18.8511 7.86719 19.2425 8.25965 19.2425 8.74322C19.2426 9.22691 18.8512 9.61943 18.3689 9.61943Z" fill="#46B34C"/>
<path d="M18.3689 13.1242H14.8736C14.3914 13.1242 14 12.7318 14 12.2479C14 11.7646 14.3914 11.3721 14.8736 11.3721H18.3689C18.8511 11.3721 19.2425 11.7646 19.2425 12.2479C19.2426 12.7317 18.8512 13.1242 18.3689 13.1242Z" fill="#46B34C"/>
<path d="M18.3689 16.6291H14.8736C14.3914 16.6291 14 16.2365 14 15.7532C14 15.2695 14.3914 14.877 14.8736 14.877H18.3689C18.8511 14.877 19.2425 15.2695 19.2425 15.7532C19.2426 16.2365 18.8512 16.6291 18.3689 16.6291Z" fill="#46B34C"/>
<path d="M18.3689 20.1337H14.8736C14.3914 20.1337 14 19.7413 14 19.2576C14 18.7739 14.3914 18.3813 14.8736 18.3813H18.3689C18.8511 18.3813 19.2425 18.7739 19.2425 19.2576C19.2425 19.7413 18.8512 20.1337 18.3689 20.1337Z" fill="#46B34C"/>
<path d="M23.6117 9.61943H21.8641C21.3819 9.61943 20.9902 9.22691 20.9902 8.74322C20.9902 8.25965 21.3819 7.86719 21.8641 7.86719H23.6117C24.0939 7.86719 24.4854 8.25965 24.4854 8.74322C24.4854 9.22691 24.0939 9.61943 23.6117 9.61943Z" fill="#46B34C"/>
<path d="M23.6117 13.1242H21.8641C21.3819 13.1242 20.9902 12.7318 20.9902 12.2479C20.9902 11.7646 21.3819 11.3721 21.8641 11.3721H23.6117C24.0939 11.3721 24.4854 11.7646 24.4854 12.2479C24.4854 12.7317 24.0939 13.1242 23.6117 13.1242Z" fill="#46B34C"/>
<path d="M23.6117 16.6286H21.8641C21.3819 16.6286 20.9902 16.236 20.9902 15.7527C20.9902 15.269 21.3819 14.8765 21.8641 14.8765H23.6117C24.0939 14.8765 24.4854 15.269 24.4854 15.7527C24.4854 16.236 24.0939 16.6286 23.6117 16.6286Z" fill="#46B34C"/>
<path d="M23.6117 20.1337H21.8641C21.3819 20.1337 20.9902 19.7413 20.9902 19.2576C20.9902 18.7739 21.3819 18.3813 21.8641 18.3813H23.6117C24.0939 18.3813 24.4854 18.7739 24.4854 19.2576C24.4854 19.7413 24.0939 20.1337 23.6117 20.1337Z" fill="#46B34C"/>
<path d="M15.4315 1.05961C15.2321 0.893148 14.9647 0.821195 14.7131 0.873988L0.732559 3.50221C0.318418 3.57967 0.0195312 3.94055 0.0195312 4.36278V23.6381C0.0195312 24.0587 0.318418 24.4212 0.732559 24.4988L14.7131 27.127C14.7655 27.1374 14.8197 27.1429 14.8739 27.1429C15.0766 27.1429 15.274 27.0727 15.4315 26.9411C15.6326 26.7749 15.7475 26.526 15.7475 26.2665V1.7345C15.7474 1.47329 15.6325 1.22614 15.4315 1.05961Z" fill="#3CA241"/>
<path d="M12.0351 16.9282L9.27185 13.7621L12.0666 10.1594C12.3637 9.77711 12.2934 9.2268 11.9142 8.92914C11.5351 8.63114 10.9862 8.70121 10.6878 9.08131L8.09938 12.4178L5.91853 9.91938C5.59884 9.551 5.04647 9.51778 4.68642 9.83694C4.32308 10.1556 4.28622 10.7092 4.60433 11.0721L7.00731 13.8266L4.57116 16.9667C4.27397 17.3488 4.34399 17.8993 4.72304 18.197C4.88394 18.3214 5.0746 18.381 5.2614 18.381C5.52173 18.381 5.77884 18.2654 5.95157 18.0426L8.17989 15.1688L10.7207 18.0798C10.8938 18.2794 11.135 18.381 11.3777 18.381C11.5823 18.381 11.7869 18.3091 11.9531 18.1635C12.3165 17.8449 12.353 17.2912 12.0351 16.9282Z" fill="#FCFCFC"/>
</svg>
