<svg width="21" height="30" viewBox="0 0 21 30" fill="none" xmlns="http://www.w3.org/2000/svg">
<path d="M20.5781 6.96279C20.4937 6.97479 20.4199 6.97479 20.3355 6.98679C17.0342 6.45858 13.5324 4.21369 11.0959 1.06843C11.0432 1.03241 11.0116 0.984394 10.9694 0.936375C10.9377 0.90036 10.9166 0.876351 10.8955 0.840336C10.885 0.828331 10.8744 0.804322 10.8639 0.804322C10.8322 0.756303 10.8112 0.708283 10.7901 0.660264C10.6635 0.516207 10.5791 0.32413 10.5475 0.120048L10.4103 0C8.42742 2.90516 4.50377 6.45858 0 6.91477L0.0316424 7.22689C0.0421899 7.28692 0.0527373 7.34694 0.0632848 7.39496C0.0949272 7.51501 0.116022 7.63505 0.116022 7.76711C0.12657 7.85114 0.147664 7.93517 0.147664 8.0072H0.158212C0.168759 8.09124 0.168759 8.17527 0.179307 8.2473C0.348066 9.96399 0.66449 11.6807 1.12858 13.3854C3.30136 21.5006 5.15771 24.3577 10.3682 30L10.442 29.916L10.5158 30C15.0934 24.922 17.7725 20.9844 19.8714 13.0132C20.3777 11.1164 20.8523 9.08764 21 6.98679L20.5781 6.96279ZM10.2838 16.0744L9.25012 17.2509L6.97187 14.6819L8.02662 13.4814L9.25012 14.8619L12.8363 10.8163L13.891 12.0168L10.2838 16.0744Z" fill="#70A6E4"/>
</svg>
