<svg width="155" height="44" viewBox="0 0 155 44" fill="none" xmlns="http://www.w3.org/2000/svg">
<path d="M44.3517 21.1829C44.3517 12.9282 50.9012 6.6687 59.4448 6.6687C67.9885 6.6687 74.5379 12.9282 74.5379 21.1829C74.5379 29.4377 67.9885 35.594 59.4274 35.594C50.8664 35.594 44.3506 29.3692 44.3506 21.1829H44.3517ZM67.1543 21.1319C67.1543 16.885 63.8111 13.6103 59.4459 13.6103C55.0807 13.6103 51.7375 16.885 51.7375 21.1319C51.7375 25.3787 55.0807 28.6187 59.4459 28.6187C63.8111 28.6187 67.1543 25.3613 67.1543 21.1319Z" fill="#0D375B"/>
<path d="M95.584 14.2252H89.0008V34.8957H81.6845V14.2252H75.084V7.40308H95.584V14.2252Z" fill="#0D375B"/>
<path d="M96.1309 21.1494C96.1309 13.0141 102.714 6.75464 111.276 6.75464C114.823 6.80569 118.627 8.3578 121.441 10.9157L117.246 16.3052C115.557 14.7704 113.324 13.7636 111.294 13.7636C107.064 13.7636 103.533 16.9873 103.533 21.1993C103.533 25.4114 107.217 28.6014 111.139 28.6014C113.442 28.6014 115.506 27.5099 117.279 25.9241L121.44 31.4667C118.814 33.8541 115.318 35.5083 111.139 35.5083C103.379 35.5083 96.1309 29.7778 96.1309 21.1483V21.1494Z" fill="#0D375B"/>
<path d="M154.016 7.14673V34.8946H146.716V23.9962L139.313 34.4341H139.262L131.844 23.9962V34.8946H124.544V7.14673H127.478L139.28 23.3152L151.082 7.14673H154.016Z" fill="#0D375B"/>
<path d="M110.588 37.9739H111.282C111.706 37.9739 112.051 38.291 112.051 38.6799C112.051 39.0687 111.704 39.3544 111.282 39.3544H110.836V40.1625H110.589V37.9739H110.588ZM111.804 38.6766C111.804 38.4246 111.57 38.2183 111.282 38.2183H110.836V39.11H111.282C111.57 39.1132 111.804 38.9177 111.804 38.6766Z" fill="#606060"/>
<path d="M112.236 39.0697C112.236 38.4495 112.742 37.9434 113.36 37.9434C113.979 37.9434 114.486 38.4495 114.486 39.0697C114.486 39.6899 113.98 40.1906 113.359 40.1906C112.739 40.1906 112.237 39.6855 112.237 39.0697H112.236ZM114.236 39.0686C114.236 38.5864 113.843 38.1921 113.359 38.1921C112.876 38.1921 112.486 38.5874 112.486 39.0686C112.486 39.5498 112.878 39.9419 113.359 39.9419C113.841 39.9419 114.236 39.5498 114.236 39.0686Z" fill="#606060"/>
<path d="M114.489 37.9739H114.754L115.229 39.5716L115.764 38.152H115.782L116.314 39.5716L116.789 37.9739H117.055L116.376 40.1755H116.338L115.769 38.7244L115.203 40.1755H115.166L114.487 37.9739H114.489Z" fill="#606060"/>
<path d="M117.57 38.2172V38.9091H118.47V39.1567H117.57V39.917H118.608V40.1625H117.323V37.9739H118.608V38.2172H117.57Z" fill="#606060"/>
<path d="M120.268 40.1625L119.658 39.3088H119.249V40.1625H119.003V37.9739H119.648C120.054 37.9739 120.386 38.2867 120.386 38.6712C120.386 38.9547 120.191 39.1991 119.925 39.2794L120.576 40.1614H120.27L120.268 40.1625ZM119.655 39.1013C119.915 39.1013 120.129 38.9025 120.129 38.6668C120.129 38.4149 119.912 38.2193 119.655 38.2193H119.247V39.1002H119.655V39.1013Z" fill="#606060"/>
<path d="M121.076 38.2172V38.9091H121.976V39.1567H121.076V39.917H122.114V40.1625H120.829V37.9739H122.114V38.2172H121.076Z" fill="#606060"/>
<path d="M124.234 39.0698C124.234 39.7378 123.799 40.1625 123.118 40.1625H122.509V37.9739H123.118C123.799 37.9728 124.234 38.3986 124.234 39.0698ZM123.985 39.0698C123.985 38.5528 123.646 38.2183 123.116 38.2183H122.755V39.9148H123.12C123.647 39.9148 123.985 39.5836 123.985 39.0687V39.0698Z" fill="#606060"/>
<path d="M126.898 39.4945C126.898 39.841 126.624 40.1625 126.206 40.1625H125.396V37.9739H125.993C126.358 37.9739 126.622 38.2324 126.622 38.5191C126.622 38.757 126.449 38.9286 126.338 38.9286C126.62 38.9286 126.899 39.1632 126.899 39.4934L126.898 39.4945ZM125.641 38.2139V38.8765H126.005C126.243 38.8776 126.389 38.7331 126.389 38.5485C126.389 38.3638 126.214 38.2139 126.007 38.2139H125.642H125.641ZM126.657 39.4771C126.657 39.2718 126.462 39.0948 126.173 39.0959H125.641V39.9203H126.185C126.435 39.9203 126.657 39.7313 126.657 39.4782V39.4771Z" fill="#606060"/>
<path d="M127.504 39.2326L126.731 37.9749H127.008L127.628 38.9578L128.247 37.9749H128.525L127.749 39.2326V40.1624H127.504V39.2326Z" fill="#606060"/>
<path d="M131.032 39.8029H129.837L129.677 40.1624H129.41L130.421 37.9402H130.449L131.461 40.1624H131.193L131.033 39.8029H131.032ZM130.936 39.589L130.435 38.4637L129.934 39.589H130.937H130.936Z" fill="#606060"/>
<path d="M131.407 39.0697C131.407 38.4549 131.918 37.9434 132.531 37.9434C132.813 37.9466 133.085 38.0748 133.283 38.2746L133.14 38.4691C132.982 38.3072 132.763 38.1953 132.522 38.1953C132.082 38.1953 131.657 38.5755 131.657 39.0708C131.657 39.5661 132.077 39.944 132.526 39.944C132.773 39.944 132.983 39.8267 133.141 39.6725L133.283 39.8702C133.102 40.0505 132.855 40.1917 132.532 40.1917C131.924 40.1917 131.407 39.691 131.407 39.0708V39.0697Z" fill="#606060"/>
<path d="M133.832 38.2172V38.9091H134.732V39.1567H133.832V39.917H134.87V40.1625H133.585V37.9739H134.87V38.2172H133.832Z" fill="#606060"/>
<path d="M136.619 38.2183H135.985V40.1625H135.738V38.2183H135.102V37.9739H136.619V38.2183Z" fill="#606060"/>
<path d="M137.596 39.7715L137.786 39.6313C137.885 39.8182 138.108 39.9442 138.341 39.9442C138.628 39.9442 138.861 39.7899 138.861 39.5738C138.861 39.3283 138.547 39.2099 138.268 39.1046C138 39.0003 137.699 38.8689 137.699 38.53C137.699 38.1911 138.002 37.9424 138.385 37.9424C138.71 37.9424 138.931 38.1205 139.012 38.3356L138.826 38.4605C138.756 38.2965 138.58 38.1846 138.382 38.1846C138.148 38.1846 137.947 38.3388 137.947 38.5343C137.947 38.7461 138.187 38.8233 138.469 38.9319C138.797 39.0644 139.109 39.2164 139.109 39.5683C139.109 39.9452 138.76 40.1918 138.339 40.1918C137.979 40.1918 137.699 40.005 137.595 39.7704L137.596 39.7715Z" fill="#606060"/>
<path d="M139.317 39.0697C139.317 38.4495 139.824 37.9434 140.442 37.9434C141.06 37.9434 141.567 38.4495 141.567 39.0697C141.567 39.6899 141.061 40.1906 140.44 40.1906C139.82 40.1906 139.318 39.6855 139.318 39.0697H139.317ZM141.317 39.0686C141.317 38.5864 140.924 38.1921 140.44 38.1921C139.957 38.1921 139.567 38.5874 139.567 39.0686C139.567 39.5498 139.959 39.9419 140.44 39.9419C140.922 39.9419 141.317 39.5498 141.317 39.0686Z" fill="#606060"/>
<path d="M143.233 39.917V40.1625H141.913V37.9739H142.16V39.9159H143.232L143.233 39.917Z" fill="#606060"/>
<path d="M143.512 39.312V37.9739H143.76V39.3109C143.76 39.6791 143.999 39.9463 144.322 39.9463C144.645 39.9463 144.884 39.678 144.884 39.3109V37.9739H145.132V39.312C145.132 39.8225 144.788 40.1961 144.322 40.1961C143.856 40.1961 143.512 39.8225 143.512 39.312Z" fill="#606060"/>
<path d="M146.928 38.2183H146.293V40.1625H146.047V38.2183H145.41V37.9739H146.928V38.2183Z" fill="#606060"/>
<path d="M147.228 37.9739H147.474V40.1625H147.228V37.9739Z" fill="#606060"/>
<path d="M147.822 39.0697C147.822 38.4495 148.328 37.9434 148.946 37.9434C149.564 37.9434 150.072 38.4495 150.072 39.0697C150.072 39.6899 149.566 40.1906 148.945 40.1906C148.325 40.1906 147.823 39.6855 147.823 39.0697H147.822ZM149.822 39.0686C149.822 38.5864 149.429 38.1921 148.945 38.1921C148.462 38.1921 148.072 38.5874 148.072 39.0686C148.072 39.5498 148.464 39.9419 148.945 39.9419C149.427 39.9419 149.822 39.5498 149.822 39.0686Z" fill="#606060"/>
<path d="M152.178 37.9683V40.196H152.166L150.666 38.5309V40.1656H150.418V37.9412H150.431L151.93 39.6051V37.9694H152.176L152.178 37.9683Z" fill="#606060"/>
<path d="M152.501 39.7715L152.691 39.6313C152.79 39.8182 153.014 39.9442 153.246 39.9442C153.533 39.9442 153.766 39.7899 153.766 39.5738C153.766 39.3283 153.453 39.2099 153.173 39.1046C152.905 39.0003 152.604 38.8689 152.604 38.53C152.604 38.1911 152.907 37.9424 153.291 37.9424C153.615 37.9424 153.836 38.1205 153.917 38.3356L153.732 38.4605C153.661 38.2965 153.485 38.1846 153.287 38.1846C153.053 38.1846 152.852 38.3388 152.852 38.5343C152.852 38.7461 153.092 38.8233 153.374 38.9319C153.702 39.0644 154.014 39.2164 154.014 39.5683C154.014 39.9452 153.665 40.1918 153.244 40.1918C152.884 40.1918 152.604 40.005 152.5 39.7704L152.501 39.7715Z" fill="#606060"/>
<path d="M29.1963 33.3L28.373 32.8623L29.1963 33.3Z" fill="#606060"/>
<path d="M31.9028 25.3615C30.9286 23.9104 29.5252 24.4872 28.9257 25.3116C28.6922 23.7062 30.7678 22.9503 31.9093 23.9962C32.384 23.4792 33.0444 23.275 33.6971 23.35C34.0143 23.3858 34.2793 23.4651 34.502 23.5716C36.9469 15.9229 37.0327 8.29161 36.721 4.44555C29.6914 4.35975 25.7465 1.34894 18.8517 1.25879H18.8408C11.96 1.34568 8.01731 4.35975 0.983405 4.44555C0.559806 9.67971 0.866101 21.9239 6.85513 31.6797L7.4612 31.3571L7.736 23.6204C7.736 23.3217 8.10637 23.0784 8.56256 23.0784C8.58211 23.0784 8.60166 23.0817 8.62121 23.0817C8.60166 23.0817 9.3902 23.1089 9.3902 23.6194C9.3902 23.6291 9.52271 27.4122 9.64653 30.9378L10.548 30.4588V27.6327L13.0961 26.2793V26.3282L13.599 26.5954L14.04 14.1633C14.04 13.7115 14.5994 13.3444 15.2902 13.3444C15.4531 13.3444 15.6073 13.365 15.7507 13.4019C16.2134 13.5214 16.5403 13.8169 16.5403 14.1622C16.5403 14.1894 17.0074 27.5805 17.0074 27.5805L19.1482 28.721L19.4078 21.4047C19.4078 21.1071 19.7477 20.8616 20.1876 20.8258C20.7318 20.7812 21.1923 21.0582 21.1923 21.4047C21.1923 21.4166 21.3759 26.6454 21.5203 30.7825L22.0145 31.0454V32.4389L22.4609 32.6757V32.0978L23.1333 31.7405L23.4189 24.724C23.4189 24.3829 24.0261 24.2797 24.4236 24.397V24.3927C24.5854 24.4459 24.7038 24.5209 24.7451 24.6338C24.7462 24.6371 24.7473 24.6403 24.7484 24.6436C24.7516 24.6534 24.7549 24.6631 24.757 24.674C24.7603 24.6903 24.7625 24.7066 24.7625 24.724C24.7625 24.7359 25.0025 30.7478 25.0025 30.7478L25.009 30.7445L26.8664 31.6634V32.9961L26.471 33.2057L27.745 32.529L28.1708 32.755L28.3848 27.4871C28.3848 27.2026 28.8323 27.0874 29.1961 27.1406C29.2037 27.1406 29.2092 27.1428 29.2168 27.1439C29.4579 27.1841 29.6578 27.2981 29.6578 27.4871C29.6578 27.4969 29.8229 31.6384 29.8837 33.1405C31.7866 30.4002 33.1943 27.4133 34.225 24.4068C33.4538 24.2982 32.5426 24.5274 31.9017 25.3615H31.9028ZM15.112 12.4146C13.5827 10.7908 15.8246 7.36838 19.3719 9.46139C20.0562 8.32745 22.8726 6.4886 25.8074 9.01173C27.2834 7.3195 30.4528 7.05557 32.0886 9.37558C34.3347 8.40565 35.9585 10.0523 36.0291 10.541C35.1863 9.7351 33.3474 9.52004 32.0114 10.5443C30.6288 8.84446 27.959 8.02333 25.7574 10.6029C25.2328 9.71446 21.8766 7.48568 19.6576 10.6909C17.86 9.02259 15.023 10.0121 15.112 12.4146ZM27.9373 17.4185C27.0054 17.4283 25.6357 17.6966 24.6441 19.2226C23.6351 17.9149 20.6416 17.6629 20.2636 19.9655C19.7912 18.9239 21.2444 16.3356 24.454 17.7476C25.8041 16.1347 28.8898 15.3614 31.0752 17.7976C32.2982 16.5203 34.8821 17.1394 35.5566 19.1216C35.0831 18.2853 33.0009 17.0883 30.9166 19.1216C30.9166 19.1216 29.787 17.399 27.9384 17.4185H27.9373Z" fill="#0D375B"/>
<path d="M22.46 37.2375H11.251C13.3494 39.298 15.8541 41.0912 18.841 42.4706C18.8442 42.4706 18.8486 42.4674 18.8519 42.4652C21.8377 41.0858 24.3413 39.2958 26.4386 37.2375H22.46Z" fill="#0D375B"/>
<path d="M7.48315 31.346L8.62252 31.9499V23.0826C8.60297 23.0826 8.58451 23.0793 8.56387 23.0793C8.1066 23.0793 7.73731 23.3216 7.73731 23.6213L7.46252 31.358L6.85645 31.6806C7.05847 32.0097 7.2681 32.3355 7.48315 32.6592V31.3471V31.346Z" fill="#09273D"/>
<path d="M25.7563 10.604C27.958 8.02444 30.6277 8.84557 32.0104 10.5454C33.3463 9.52007 35.1852 9.73512 36.028 10.5421C35.9574 10.0523 34.3337 8.40568 32.0875 9.37669C30.4518 7.05668 27.2824 7.32061 25.8063 9.01283C22.8726 6.48971 20.0562 8.32856 19.3709 9.4625C15.8246 7.36949 13.5817 10.793 15.111 12.4157C15.0219 10.0132 17.8589 9.0237 19.6565 10.692C21.8744 7.48679 25.2317 9.71557 25.7563 10.604Z" fill="white"/>
<path d="M30.914 19.1217C32.9994 17.0884 35.0816 18.2853 35.5541 19.1217C34.8796 17.1384 32.2956 16.5203 31.0726 17.7976C28.8884 15.3614 25.8015 16.1337 24.4514 17.7477C21.2419 16.3357 19.7886 18.924 20.2611 19.9656C20.6391 17.664 23.6325 17.916 24.6415 19.2227C25.6332 17.6966 27.0028 17.4284 27.9347 17.4186C29.7834 17.399 30.913 19.1217 30.913 19.1217H30.914Z" fill="white"/>
<path d="M33.6968 23.3499C33.0441 23.275 32.3837 23.4803 31.909 23.9962C30.7675 22.9513 28.6919 23.7073 28.9254 25.3115C29.5249 24.4871 30.9293 23.9104 31.9025 25.3615C32.5433 24.5273 33.4535 24.297 34.2258 24.4067C34.3214 24.1287 34.4137 23.8496 34.5028 23.5715C34.2801 23.4661 34.0151 23.3858 33.6979 23.3499H33.6968Z" fill="white"/>
<path d="M11.8225 29.8322L13.0966 29.2348V26.2805L10.5485 27.6339V30.46L9.64696 30.939L9.27441 31.1367V35.0751C9.5188 35.3727 9.76861 35.6659 10.0271 35.9549L11.0101 35.4596V36.045L10.3953 36.3546C10.6734 36.6532 10.9579 36.9476 11.2512 37.2365H11.8225V29.8311V29.8322ZM9.91198 32.1827L10.9514 31.6613V32.2467L9.91198 32.7681V32.1827ZM9.91198 33.46L10.971 32.9278V33.5132L9.91198 34.0454V33.46ZM10.9916 34.7796L9.91198 35.3227V34.7373L10.9916 34.1942V34.7796Z" fill="#09273D"/>
<path d="M7.48253 31.3461V32.6582C8.0343 33.4869 8.63059 34.295 9.27359 35.0759V31.1376L9.64614 30.9399C9.52232 27.4142 9.38981 23.6312 9.38981 23.6214C9.38981 23.1109 8.60127 23.0827 8.62082 23.0838V31.9511L7.48145 31.3472L7.48253 31.3461Z" fill="white"/>
<path d="M9.64696 30.9399L9.27441 31.1376L9.64696 30.9399Z" fill="#C7B299"/>
<path d="M19.1069 29.8842L18.1924 30.3697V33.7498L19.4664 33.0731V33.6585L18.1924 34.3352V35.2845L19.4664 34.6078V35.1933L18.1924 35.8699V39.9245L20.7405 39.1642V31.7621L19.4664 31.1647V29.6919L20.1876 30.0753V20.8257C19.7477 20.8615 19.4078 21.107 19.4078 21.4046L19.1482 28.7209L19.1069 29.8831V29.8842Z" fill="#09273D"/>
<path d="M11.0103 36.0459V35.4604L10.0273 35.9557C10.1479 36.0904 10.2717 36.2229 10.3955 36.3565L11.0103 36.047V36.0459Z" fill="white"/>
<path d="M9.91113 35.3226L10.9897 34.7795V34.1941L9.91113 34.7372V35.3226Z" fill="white"/>
<path d="M10.9506 31.6611L9.91113 32.1825V32.7679L10.9506 32.2466V31.6611Z" fill="white"/>
<path d="M10.9701 32.9275L9.91113 33.4597V34.0451L10.9701 33.5129V32.9275Z" fill="white"/>
<path d="M11.8223 29.8319V37.2373H14.3704V27.0058L13.5992 26.5963L13.0963 26.3291V29.2346L11.8223 29.8319Z" fill="white"/>
<path d="M14.3698 37.2375L16.5595 38.7309V27.3438L15.7503 27.7739V13.403C15.608 13.3661 15.4527 13.3455 15.2898 13.3455C14.599 13.3455 14.0396 13.7115 14.0396 14.1644L13.5986 26.5965L14.3698 27.006V37.2375Z" fill="#09273D"/>
<path d="M14.3698 27.0059L13.5986 26.5964L14.3698 27.0059Z" fill="#695E50"/>
<path d="M24.7451 24.6348C24.7451 24.6348 24.7474 24.6417 24.7486 24.6451C24.7474 24.6417 24.7463 24.6382 24.7451 24.6348Z" fill="#695E50"/>
<path d="M24.7559 24.675C24.7591 24.6913 24.7613 24.7076 24.7613 24.725C24.7613 24.7076 24.7591 24.6913 24.7559 24.675Z" fill="#695E50"/>
<path d="M25.008 37.2374V30.7455L25.0014 30.7488L24.4236 31.0561V24.398C24.0261 24.2807 23.4189 24.3839 23.4189 24.725L23.1333 31.7415L22.4609 32.0988V37.862L25.009 37.2374H25.008ZM23.0833 33.0731L23.9946 32.5768V33.1622L23.0833 33.6586V33.0731ZM23.0833 34.4536L23.9946 33.9573V34.5427L23.0833 35.0391V34.4536ZM23.0833 35.8341L23.9946 35.3377V35.9232L23.0833 36.4195V35.8341Z" fill="#09273D"/>
<path d="M29.1962 33.3001V27.1405C28.8324 27.0873 28.3849 27.2025 28.3849 27.487L28.1709 32.7549L28.3729 32.8624L29.1962 33.3001Z" fill="#09273D"/>
<path d="M29.6578 27.487C29.6578 27.298 29.4579 27.1829 29.2168 27.1438C29.472 27.1916 29.6578 27.3263 29.6578 27.487Z" fill="#695E50"/>
<path d="M28.0109 35.5593L27.7448 35.4344V32.5278L26.4707 33.2045V37.2059C27.0105 36.6737 27.5232 36.1241 28.0098 35.5593H28.0109Z" fill="#09273D"/>
<path d="M26.4395 37.238H26.4715V37.207C26.4604 37.2181 26.4494 37.228 26.4395 37.238Z" fill="#C7B299"/>
<path d="M26.4707 33.2056L26.8661 32.996V31.6633L25.0088 30.7444V37.2363H26.4392C26.4501 37.2265 26.461 37.2157 26.4707 37.2059V33.2045V33.2056Z" fill="white"/>
<path d="M28.0111 35.5594C28.5803 34.9001 29.1157 34.2202 29.6164 33.5229L29.1972 33.3002L28.3739 32.8625L28.1719 32.755L27.7461 32.5291V35.4356L28.0122 35.5605L28.0111 35.5594Z" fill="white"/>
<path d="M29.6554 27.5218L29.8835 33.1405C29.8237 31.6383 29.6576 27.4968 29.6576 27.4871C29.6576 27.499 29.6565 27.511 29.6543 27.5218H29.6554Z" fill="#C7B299"/>
<path d="M29.1963 27.1396C29.2029 27.1419 29.2106 27.143 29.2173 27.1441C29.2106 27.143 29.204 27.1408 29.1963 27.1396Z" fill="#C7B299"/>
<path d="M28.3729 32.8624L28.1709 32.7549L28.3729 32.8624Z" fill="#C7B299"/>
<path d="M29.6165 33.5228C29.7078 33.3958 29.7946 33.2687 29.8837 33.1405L29.6556 27.5219C29.6578 27.5099 29.6589 27.4991 29.6589 27.4871C29.6589 27.3253 29.4731 27.1906 29.2179 27.1439C29.2114 27.1428 29.2038 27.1417 29.1973 27.1406V33.3002L29.6165 33.5228Z" fill="white"/>
<path d="M23.9943 33.9573L23.083 34.4536V35.0391L23.9943 34.5427V33.9573Z" fill="white"/>
<path d="M23.9943 32.5767L23.083 33.073V33.6596L23.9943 33.1632V32.5767Z" fill="white"/>
<path d="M23.9943 35.3379L23.083 35.8343V36.4197L23.9943 35.9233V35.3379Z" fill="white"/>
<path d="M24.748 24.6445C24.7514 24.6545 24.7547 24.6644 24.7569 24.6755C24.7547 24.6644 24.7514 24.6545 24.748 24.6445Z" fill="#C7B299"/>
<path d="M24.7453 24.6349C24.7041 24.522 24.5857 24.447 24.4238 24.3938V24.3981C24.5791 24.4438 24.7019 24.5231 24.7453 24.6349Z" fill="#C7B299"/>
<path d="M25.0018 30.7489C25.0018 30.7489 24.7617 24.7371 24.7617 24.7251C24.7617 24.7077 24.7596 24.6915 24.7563 24.6752C24.7541 24.6643 24.752 24.6545 24.7476 24.6447C24.7476 24.6415 24.7454 24.6382 24.7444 24.635C24.7009 24.5231 24.5782 24.4438 24.4229 24.3982V31.0563L25.0007 30.7489H25.0018Z" fill="white"/>
<path d="M16.5602 27.3438V38.731L18.1926 39.5999V35.8712L19.4667 35.1945V34.6091L18.1926 35.2857V34.3364L19.4667 33.6598V33.0743L18.1926 33.751V30.3709L19.1072 29.8854L19.1485 28.7232L17.0077 27.5828C17.0077 27.5828 16.5406 14.1905 16.5406 14.1645C16.5406 13.8191 16.2137 13.5236 15.751 13.4031V27.7739L16.5602 27.3438Z" fill="white"/>
<path d="M19.1477 28.7222L19.1064 29.8843L19.1477 28.7222Z" fill="#C7B299"/>
<path d="M19.4668 29.693V31.1658L20.7408 31.7632V38.8394L22.4613 37.8619V32.6766L22.0149 32.4398V31.0463L21.5207 30.7835C21.3762 26.6452 21.1927 21.4165 21.1927 21.4057C21.1927 21.0592 20.7311 20.7822 20.188 20.8267V30.0764L19.4668 29.693Z" fill="white"/>
<path d="M18.8402 39.5782C4.38137 33.5837 1.3749 15.9631 2.20038 5.13095C8.14487 4.97129 12.9652 2.22442 18.8402 2.15599C18.8445 2.15599 18.8489 2.15599 18.8521 2.15599V1.65527C18.8521 1.65527 18.8478 1.65527 18.8456 1.65527H18.8348C15.7979 1.69112 13.0119 2.43404 10.3172 3.15199C7.73431 3.84061 5.06347 4.55312 2.18734 4.63024L1.7355 4.64219L1.70183 5.09185C0.749281 17.5782 4.61706 34.2224 18.649 40.0398L18.8402 40.1191L18.8521 40.1137V39.5717C18.8521 39.5717 18.8434 39.5749 18.8402 39.5771V39.5782Z" fill="white"/>
<path d="M37.5694 3.33665C30.2053 3.2465 26.0747 0.0934089 18.8529 0H18.8409C11.6343 0.0901504 7.50369 3.2465 0.135254 3.33665C-0.508832 11.2851 0.455669 34.6732 18.8398 43.1658C18.8442 43.1647 18.8485 43.1625 18.8518 43.1603C37.2468 34.6634 38.2124 11.284 37.5694 3.33665ZM34.8714 22.8982C31.9247 32.3553 26.5374 38.9852 18.8529 42.6086C18.8485 42.6097 18.8453 42.6118 18.842 42.614C11.1597 38.9928 5.77563 32.3607 2.83108 22.8982C0.208026 14.4686 0.412223 6.63637 0.601213 3.82868C4.15618 3.72332 6.99103 2.9174 9.73573 2.13646C12.614 1.31859 15.3316 0.545247 18.8485 0.500715H18.854C22.3698 0.546333 25.0917 1.31967 27.9754 2.13863C30.7201 2.91848 33.5539 3.72332 37.1045 3.82868C37.2935 6.63746 37.4988 14.4708 34.8725 22.8993L34.8714 22.8982Z" fill="url(#paint0_radial_136_1268)"/>
<path d="M35.978 5.09174L35.9421 4.64316L35.4925 4.63121C32.6305 4.5541 29.9618 3.84267 27.3811 3.15514C24.6798 2.43611 21.8895 1.69209 18.8516 1.65625V2.15697C24.7211 2.22865 29.561 4.97118 35.4794 5.13084C36.3277 15.9598 33.3234 33.5728 18.8516 39.5726V40.1146L19.0308 40.0397C33.1051 34.2136 36.9566 17.5727 35.9769 5.09066L35.978 5.09174Z" fill="white"/>
<path d="M37.1609 3.8243L37.1565 3.77216L37.1044 3.76999C33.5614 3.66463 30.7287 2.86088 27.9894 2.0832C25.1046 1.26316 22.3795 0.488734 18.8517 0.443115V1.715C21.882 1.75084 24.6691 2.49377 27.3693 3.2128C29.9521 3.90142 32.623 4.61176 35.4904 4.68996L35.889 4.70082L35.9205 5.09835C36.8959 17.5597 33.0542 34.1746 19.0081 39.9887L18.8604 40.068L18.8506 40.0637V42.6737L18.8745 42.6618C26.5742 39.0308 31.9734 32.3879 34.9234 22.9166C37.5356 14.5305 37.3575 6.77211 37.1587 3.82539L37.1609 3.8243Z" fill="url(#paint1_linear_136_1268)"/>
<path d="M18.67 39.9877C4.66631 34.1822 0.808302 17.5641 1.75868 5.09727L1.7891 4.69974L2.1888 4.68887C5.0747 4.61176 7.74771 3.89816 10.3317 3.20845C13.0231 2.49051 15.8048 1.74867 18.8351 1.71391V1.65634L18.8514 1.715V0.443115C18.8514 0.443115 18.8471 0.443115 18.8449 0.443115C15.3214 0.487647 12.5995 1.26207 9.71799 2.08212C6.97872 2.86088 4.14495 3.66681 0.597589 3.77108L0.545454 3.77325L0.542196 3.82539C0.344516 6.77211 0.165302 14.5316 2.77423 22.9166C5.72313 32.3944 11.1202 39.0394 18.8145 42.6683L18.8514 42.6748V40.0648L18.67 39.9898V39.9877Z" fill="url(#paint2_linear_136_1268)"/>
<defs>
<radialGradient id="paint0_radial_136_1268" cx="0" cy="0" r="1" gradientUnits="userSpaceOnUse" gradientTransform="translate(18.8518 -4.78666) scale(23.5065)">
<stop stop-color="white"/>
<stop offset="0.3" stop-color="#BBBDBF"/>
<stop offset="0.56" stop-color="#7A8083"/>
<stop offset="1" stop-color="#4F565B"/>
</radialGradient>
<linearGradient id="paint1_linear_136_1268" x1="17.0052" y1="21.5437" x2="35.2134" y2="21.6882" gradientUnits="userSpaceOnUse">
<stop stop-color="white"/>
<stop offset="0.3" stop-color="#BBBDBF"/>
<stop offset="0.56" stop-color="#7A8083"/>
<stop offset="1" stop-color="#4F565B"/>
</linearGradient>
<linearGradient id="paint2_linear_136_1268" x1="8.90989" y1="-1.65424" x2="12.2335" y2="29.4172" gradientUnits="userSpaceOnUse">
<stop stop-color="white"/>
<stop offset="0.3" stop-color="#BBBDBF"/>
<stop offset="0.56" stop-color="#7A8083"/>
<stop offset="1" stop-color="#4F565B"/>
</linearGradient>
</defs>
</svg>
