<svg width="20" height="29" viewBox="0 0 20 29" fill="none" xmlns="http://www.w3.org/2000/svg">
<g clip-path="url(#clip0_136_2126)">
<path d="M19.905 6.76922C19.905 6.30511 19.9137 5.841 19.905 5.37771C19.8884 4.51333 19.315 3.71198 18.518 3.63586C17.6484 3.55237 16.7653 3.61703 15.8523 3.61703C15.8523 3.87651 15.8547 4.1057 15.8523 4.33489C15.8381 5.51686 15.1548 6.24454 14.0127 6.28055C13.5522 6.29447 13.091 6.28383 12.6305 6.28383C10.4181 6.28383 8.20654 6.28956 5.99417 6.28137C4.77386 6.27646 4.09301 5.55942 4.08037 4.29887C4.078 4.08278 4.08037 3.8675 4.08037 3.59493C3.33475 3.59493 2.64837 3.63586 1.96831 3.58593C0.798547 3.49916 -0.00315009 4.43066 9.30477e-06 5.61017C0.0197555 12.6226 0.0094875 19.635 0.0102773 26.6474C0.0102773 27.9284 0.708504 28.6577 1.93435 28.6577C7.26741 28.6577 12.6005 28.6373 17.9327 28.6741C19.0954 28.6823 19.9232 27.8285 19.9184 26.6187C19.89 20.0017 19.905 13.3855 19.905 6.7684V6.76922ZM8.79577 8.9498C11.1503 8.94816 13.5041 8.94735 15.8586 8.9498C16.1611 8.9498 16.4336 9.03984 16.4273 9.41637C16.4202 9.8019 16.139 9.84528 15.8381 9.84365C14.6675 9.83955 13.497 9.84201 12.3264 9.84201C11.1558 9.84201 9.98528 9.8371 8.81473 9.84446C8.51774 9.8461 8.25867 9.77571 8.24288 9.43519C8.22629 9.07586 8.48299 8.94898 8.79656 8.94898L8.79577 8.9498ZM3.60804 9.10942C3.83789 8.86631 4.08748 8.93998 4.29126 9.17572C4.43896 9.34679 4.57166 9.5326 4.73279 9.74051C5.2296 9.21665 5.65454 8.773 6.07395 8.32362C6.28721 8.09525 6.51548 7.95855 6.79113 8.19675C7.02256 8.39647 6.97912 8.63876 6.67266 8.95962C6.18295 9.47121 5.69245 9.9828 5.19801 10.4903C4.85995 10.8373 4.68224 10.8333 4.33786 10.4805C4.12302 10.2603 3.91371 10.0344 3.6965 9.81745C3.48087 9.60218 3.37346 9.35825 3.60804 9.10942ZM6.71057 12.5113C6.18769 13.049 5.66639 13.5885 5.14667 14.1287C4.89392 14.3914 4.65064 14.3972 4.39868 14.1254C4.15304 13.8602 3.89871 13.6024 3.64832 13.3421C3.45244 13.1383 3.40505 12.9107 3.60409 12.693C3.81972 12.4572 4.05589 12.5055 4.25809 12.7224C4.42238 12.8984 4.5685 13.0924 4.75885 13.3216C5.24382 12.8018 5.67429 12.3435 6.10159 11.8826C6.30459 11.6641 6.53048 11.529 6.78323 11.7746C7.05178 12.0349 6.93252 12.2845 6.71057 12.5121V12.5113ZM3.62621 16.2512C3.83552 16.0522 4.05983 16.0874 4.25098 16.3019C4.41053 16.4812 4.56297 16.667 4.75885 16.897C5.25488 16.3682 5.69324 15.9008 6.1324 15.4334C6.34566 15.2067 6.58261 15.1314 6.81562 15.3843C6.99886 15.584 6.97201 15.81 6.78876 16.0023C6.22481 16.5925 5.66007 17.1818 5.08901 17.7646C4.88839 17.9693 4.66486 17.9701 4.46108 17.7654C4.17752 17.4814 3.8995 17.1925 3.62621 16.8978C3.43032 16.6874 3.41769 16.4501 3.62779 16.2503L3.62621 16.2512ZM6.7935 23.5615C6.22955 24.1517 5.66481 24.741 5.09375 25.3238C4.89313 25.5285 4.6696 25.5293 4.46582 25.3246C4.18226 25.0406 3.90423 24.7517 3.63095 24.457C3.43506 24.2466 3.42243 24.0093 3.63253 23.8095C3.84184 23.6106 4.06615 23.6458 4.2573 23.8603C4.41685 24.0395 4.56929 24.2253 4.76517 24.4554C5.2612 23.9266 5.69956 23.4592 6.13872 22.9918C6.35198 22.7651 6.58893 22.6898 6.82194 22.9427C7.00518 23.1424 6.97833 23.3683 6.79508 23.5607L6.7935 23.5615ZM6.7935 19.7177C6.22955 20.3078 5.66481 20.8972 5.09375 21.48C4.89313 21.6846 4.6696 21.6854 4.46582 21.4808C4.18226 21.1968 3.90423 20.9078 3.63095 20.6131C3.43506 20.4028 3.42243 20.1654 3.63253 19.9657C3.84184 19.7668 4.06615 19.802 4.2573 20.0164C4.41685 20.1957 4.56929 20.3815 4.76517 20.6115C5.2612 20.0827 5.69956 19.6153 6.13872 19.148C6.35198 18.9212 6.58893 18.8459 6.82194 19.0988C7.00518 19.2986 6.97833 19.5245 6.79508 19.7168L6.7935 19.7177ZM8.84869 16.1259C10.02 16.1243 11.1906 16.1259 12.3619 16.1251C13.5199 16.1251 14.6778 16.1284 15.8357 16.1226C16.1422 16.121 16.3989 16.1816 16.4297 16.5573C16.4541 16.8552 16.2322 17.0214 15.8223 17.0222C13.493 17.0239 11.1637 17.0206 8.83526 17.0247C8.52406 17.0247 8.27605 16.9428 8.23498 16.5843C8.20259 16.2986 8.44508 16.1267 8.84869 16.1267V16.1259ZM15.8286 24.5806C13.4993 24.5822 11.1701 24.579 8.84158 24.583C8.53038 24.583 8.28237 24.5012 8.2413 24.1427C8.20891 23.857 8.4514 23.6851 8.85501 23.6851C10.0264 23.6835 11.1969 23.6851 12.3683 23.6843C13.5262 23.6843 14.6841 23.6876 15.842 23.6818C16.1485 23.6802 16.4052 23.7408 16.436 24.1165C16.4605 24.4144 16.2385 24.5806 15.8286 24.5814V24.5806ZM15.8286 20.7367C13.4993 20.7384 11.1701 20.7351 8.84158 20.7392C8.53038 20.7392 8.28237 20.6573 8.2413 20.2988C8.20891 20.0132 8.4514 19.8413 8.85501 19.8413C10.0264 19.8396 11.1969 19.8413 12.3683 19.8404C13.5262 19.8404 14.6841 19.8437 15.842 19.838C16.1485 19.8363 16.4052 19.8969 16.436 20.2726C16.4605 20.5706 16.2385 20.7367 15.8286 20.7376V20.7367ZM15.9013 13.4288C14.7173 13.4337 13.5333 13.4305 12.3485 13.4305C11.1772 13.4305 10.0066 13.4256 8.83526 13.4337C8.52248 13.4362 8.27605 13.3601 8.23498 12.9999C8.20259 12.7183 8.45298 12.535 8.84869 12.535C11.178 12.5334 13.5064 12.526 15.8349 12.5473C16.0292 12.5489 16.2962 12.6971 16.3981 12.864C16.5616 13.1317 16.2883 13.4272 15.9013 13.4288Z" fill="#FF6000"/>
<path d="M6.03331 5.39008C7.34919 5.39172 8.66587 5.39008 9.98176 5.39008C11.3245 5.39008 12.6665 5.39335 14.0092 5.38762C14.6166 5.38517 14.972 5.03402 14.9957 4.41111C15.0115 4.00266 15.0139 3.59257 14.9941 3.18412C14.9657 2.59641 14.6284 2.25999 14.0621 2.23134C13.8386 2.21989 13.6143 2.23626 13.3908 2.22725C12.8671 2.20597 12.4635 1.95304 12.1681 1.51431C12.0559 1.34732 11.9595 1.16725 11.8687 0.98635C11.5251 0.29796 10.9817 -0.0261806 10.2353 0.00164964C9.98571 0.0114721 9.73533 1.25673e-05 9.48495 0.00574233C8.91468 0.0196575 8.48184 0.297142 8.16748 0.775986C8.04189 0.966705 7.94632 1.17789 7.83416 1.37843C7.52454 1.92849 7.06801 2.22316 6.44719 2.22971C6.27579 2.23134 6.10518 2.22643 5.93379 2.22971C5.27821 2.24444 4.94331 2.58659 4.92357 3.26925C4.91409 3.59585 4.91883 3.92408 4.92199 4.25068C4.9291 5.05612 5.25294 5.38844 6.03331 5.38926V5.39008ZM9.95965 1.35797C10.3222 1.35797 10.601 1.65346 10.5955 2.03162C10.5899 2.39178 10.323 2.67827 9.98018 2.69054C9.63028 2.70364 9.32698 2.40078 9.32066 2.03162C9.31434 1.65837 9.59869 1.35797 9.95886 1.35715L9.95965 1.35797Z" fill="#FF6000"/>
</g>
<defs>
<clipPath id="clip0_136_2126">
<rect width="19.9184" height="28.675" fill="white"/>
</clipPath>
</defs>
</svg>
