<svg width="20" height="19" viewBox="0 0 20 19" fill="none" xmlns="http://www.w3.org/2000/svg">
<path d="M19 17.1635L18.7832 16.9681C18.1682 16.4084 17.6299 15.7666 17.1829 15.06C16.6946 14.0848 16.402 13.0198 16.3221 11.9275V8.71037C16.3196 8.31959 16.2854 7.9297 16.2201 7.54464C15.1401 7.31791 14.17 6.71693 13.4741 5.84346C12.7781 4.96998 12.399 3.87769 12.401 2.7515V2.34122C11.7353 2.0066 11.0201 1.78656 10.2842 1.68997V0.869409C10.2842 0.638827 10.1946 0.41769 10.0349 0.254644C9.8753 0.0915982 9.6588 0 9.43305 0C9.20731 0 8.99081 0.0915982 8.83118 0.254644C8.67156 0.41769 8.58188 0.638827 8.58188 0.869409V1.72254C6.93418 1.95995 5.42621 2.79822 4.33635 4.0826C3.24649 5.36697 2.64835 7.01072 2.65235 8.71037V11.9275C2.57249 13.0198 2.27986 14.0848 1.79161 15.06C1.35224 15.7649 0.822607 16.4066 0.216779 16.9681L0 17.1635V19H19V17.1635Z" fill="#393939"/>
<path d="M17 6C18.6569 6 20 4.65685 20 3C20 1.34315 18.6569 0 17 0C15.3431 0 14 1.34315 14 3C14 4.65685 15.3431 6 17 6Z" fill="#393939"/>
</svg>
