<svg width="22" height="28" viewBox="0 0 22 28" fill="none" xmlns="http://www.w3.org/2000/svg">
<path fill-rule="evenodd" clip-rule="evenodd" d="M22 7.36837V25.7893C22 27.0104 20.9808 28 19.7241 28H2.27588C1.01873 28 0 27.0104 0 25.7893V2.21069C0 0.989625 1.01873 0 2.27588 0H14.4136L22 7.36837Z" fill="#CB0606"/>
<path fill-rule="evenodd" clip-rule="evenodd" d="M21.9999 6.95581V7.87281H15.7982C14.5141 7.87281 13.9219 6.85781 13.9219 5.60612V0H14.8611L21.9999 6.95581Z" fill="#FB8D8D"/>
<path fill-rule="evenodd" clip-rule="evenodd" d="M16.8838 14.8954C16.6881 14.8324 16.4995 14.8005 16.3177 14.8005C16.1111 14.8005 15.9693 14.8421 15.8916 14.9252C15.8144 15.0083 15.7757 15.1553 15.7757 15.3666V15.7704H16.6436V16.5816H15.7757V19.9219H14.7242V16.5816H14.1823V15.7704H14.7242V15.3666C14.7242 14.8521 14.8553 14.4803 15.1175 14.2506C15.3797 14.0209 15.774 13.9062 16.3011 13.9062C16.5484 13.9062 16.8106 13.9391 17.0877 14.0051L16.8838 14.8954ZM12.4793 19.5181C12.2836 19.6791 12.0771 19.8073 11.8597 19.9022C11.6424 19.9971 11.3955 20.0444 11.1185 20.0444C10.5806 20.0444 10.1689 19.8558 9.88379 19.4787C9.59824 19.1011 9.45591 18.5683 9.45591 17.8796C9.45591 17.1753 9.61261 16.6279 9.92644 16.2372C10.2403 15.847 10.6807 15.6514 11.2487 15.6514C11.4498 15.6514 11.6559 15.6917 11.8678 15.7722C12.0797 15.8527 12.2553 15.9551 12.3936 16.0789V14.0288H13.4451V19.9219H12.4793V19.5181ZM12.3936 16.9219C12.2822 16.8244 12.1444 16.7377 11.9801 16.6625C11.8157 16.5877 11.6478 16.5501 11.4768 16.5501C11.1944 16.5501 10.9676 16.6682 10.7966 16.904C10.6251 17.1403 10.5397 17.4601 10.5397 17.8639C10.5397 18.2624 10.6098 18.5748 10.7494 18.8019C10.8895 19.0289 11.1059 19.1423 11.3995 19.1423C11.5733 19.1423 11.7506 19.1033 11.9311 19.0254C12.1116 18.9476 12.2661 18.8518 12.3936 18.7384V16.9219ZM7.8993 19.7753C7.64114 19.9547 7.33314 20.0444 6.9744 20.0444C6.50163 20.0444 6.09844 19.9009 5.7644 19.613V21.4851H4.71289V15.7704H5.68269V16.1778C5.87844 16.0141 6.08407 15.8855 6.30003 15.7919C6.51599 15.6983 6.76383 15.6514 7.04354 15.6514C7.58412 15.6514 7.99583 15.8361 8.27824 16.2058C8.56065 16.575 8.70207 17.1118 8.70207 17.8162C8.70207 18.2624 8.63293 18.6553 8.4942 18.9957C8.35546 19.3361 8.15746 19.5959 7.8993 19.7753ZM7.40228 16.8883C7.25816 16.6625 7.04354 16.5501 6.75844 16.5501C6.58738 16.5501 6.41138 16.589 6.23089 16.6664C6.04995 16.7443 5.8946 16.8401 5.7644 16.9534V18.7699C5.87575 18.8679 6.01358 18.9541 6.17791 19.0294C6.34224 19.1046 6.51105 19.1423 6.68526 19.1423C6.97305 19.1423 7.20069 19.0228 7.36771 18.7839C7.53473 18.5451 7.61824 18.2279 7.61824 17.8324C7.61824 17.4286 7.54595 17.114 7.40228 16.8883Z" fill="white"/>
</svg>
