<svg width="14" height="14" viewBox="0 0 14 14" fill="none" xmlns="http://www.w3.org/2000/svg">
<path d="M12.9883 6.76245C12.4169 6.76245 12.1459 7.16511 12.0508 7.59026C11.7081 9.12026 10.2541 11.45 7.36328 11.45C4.77438 11.45 2.67578 9.35089 2.67578 6.76245C2.67578 4.17401 4.77438 2.07495 7.36328 2.07495C8.41328 2.07495 9.37656 2.42792 10.157 3.01245H9.23828C8.72078 3.01245 8.30078 3.43245 8.30078 3.94995C8.30078 4.46745 8.72078 4.88745 9.23828 4.88745H12.0508C12.5683 4.88745 12.9883 4.46745 12.9883 3.94995V1.13745C12.9883 0.619951 12.5683 0.199951 12.0508 0.199951C11.5333 0.199951 11.1133 0.619951 11.1133 1.13745V1.38026C10.0506 0.636826 8.75875 0.199951 7.36328 0.199951C3.73891 0.199951 0.800781 3.13808 0.800781 6.76245C0.800781 10.3868 3.73891 13.325 7.36328 13.325C12.0409 13.325 13.9258 8.87183 13.9258 7.75854C13.9258 7.07745 13.428 6.76245 12.9883 6.76245Z" fill="white"/>
</svg>
