<svg width="27" height="29" viewBox="0 0 27 29" fill="none" xmlns="http://www.w3.org/2000/svg">
<g clip-path="url(#clip0_136_2117)">
<path d="M14.4346 2.77246C14.4346 3.25969 14.4346 3.73683 14.4346 4.21358C14.4342 5.95921 14.4369 7.70446 14.4284 9.45009C14.4276 9.65181 14.5296 9.64405 14.6677 9.64482C16.814 9.65103 18.9602 9.66228 21.1061 9.66267C21.3043 9.66267 21.3528 9.71581 21.3528 9.91132C21.3567 16.1886 21.3672 22.4663 21.3765 28.7436C21.3765 28.8134 21.3765 28.8829 21.3765 28.9651H0V2.77246H14.4346ZM2.04657 21.3964H19.2566V20.0007H2.04657V21.3964ZM2.04424 17.9257H19.2686C19.2686 17.6872 19.2686 17.468 19.2686 17.2488C19.2686 17.0296 19.2686 16.8155 19.2686 16.5979H2.04424V17.9261V17.9257ZM2.04734 14.4562H19.2562V13.1213H2.04734V14.4562ZM19.2605 23.4764H2.03532C2.03532 23.8768 2.03493 24.2628 2.03609 24.6491C2.03609 24.6992 2.04463 24.7492 2.04967 24.8055H19.2605V23.4764ZM2.03532 9.65452C2.03532 10.0673 2.04463 10.4544 2.03144 10.8412C2.02523 11.02 2.07954 11.0681 2.25759 11.0677C4.83635 11.0623 7.41474 11.0638 9.9935 11.0638C10.7301 11.0638 11.4671 11.0642 12.2038 11.0615C12.2782 11.0615 12.3884 11.0995 12.3892 10.9603C12.3907 10.5289 12.3896 10.0979 12.3896 9.65452H2.03532ZM12.3903 7.58381C12.3903 7.19939 12.3799 6.82621 12.395 6.4542C12.4024 6.26993 12.3395 6.22998 12.1661 6.23037C8.85695 6.23463 5.54777 6.23308 2.23819 6.23308C2.17613 6.23308 2.11406 6.24084 2.04812 6.24549V7.5842H12.3903V7.58381Z" fill="#B18123"/>
<path d="M24.1066 20.6912H22.0771C22.0705 20.6334 22.06 20.5845 22.06 20.5352C22.0592 19.9665 22.065 19.3975 22.0569 18.8288C22.0546 18.6717 22.0949 18.6162 22.2605 18.6193C22.797 18.6294 23.3335 18.6232 23.8699 18.6232C23.9398 18.6232 24.0092 18.6232 24.0934 18.6232V17.267H22.0604C22.0604 17.061 22.0604 16.8822 22.0604 16.7034C22.0604 16.2511 22.067 15.7984 22.0569 15.3461C22.0534 15.1878 22.1093 15.1505 22.2571 15.1525C22.8063 15.1599 23.356 15.1498 23.9052 15.1587C24.0689 15.1614 24.1163 15.1075 24.1108 14.9484C24.1 14.6257 24.1004 14.3022 24.1097 13.979C24.1139 13.8351 24.0697 13.7882 23.9239 13.7901C23.368 13.7975 22.8121 13.7886 22.2563 13.7959C22.1073 13.7979 22.0546 13.7595 22.0565 13.602C22.0654 12.9953 22.06 12.3886 22.06 11.757H24.0918V10.3881C23.9029 10.3881 23.7237 10.3881 23.5445 10.3881C23.1178 10.3881 22.6911 10.3815 22.2648 10.3916C22.1069 10.395 22.0522 10.3524 22.055 10.1875C22.0643 9.61882 22.0647 9.04975 22.0526 8.48145C22.0503 8.37943 21.9972 8.25607 21.9266 8.18159C21.5837 7.82121 21.228 7.47247 20.8726 7.12412C20.8183 7.07059 20.7411 7.04033 20.6748 6.99921C20.6923 6.97555 20.7097 6.95189 20.7276 6.92822H26.1919V26.2198H22.0747V22.1106C22.1473 22.1063 22.2214 22.0978 22.2958 22.0978C22.8389 22.0966 23.382 22.0923 23.9246 22.1001C24.072 22.1024 24.1124 22.0536 24.1093 21.9112C24.1008 21.5116 24.1062 21.1117 24.1062 20.6912H24.1066Z" fill="#B18123"/>
<path d="M19.2585 0.000851559V5.49029C19.1832 5.42162 19.1281 5.37546 19.0777 5.32503C18.0439 4.29278 17.0094 3.26131 15.9799 2.22479C15.8752 2.11966 15.7704 2.07777 15.6234 2.07816C12.0939 2.08165 8.56479 2.08087 5.03528 2.08087C4.85193 2.08087 4.76051 1.99139 4.76103 1.81243C4.76142 1.28874 4.76685 0.765051 4.75793 0.241749C4.75521 0.0838661 4.79982 0.0287817 4.96158 0.0283938C6.20907 0.0233508 7.45656 0.00356699 8.70366 0.00240323C12.1362 -0.00186387 15.5683 0.000851559 19.0009 0.000851559H19.2585Z" fill="#B18123"/>
<path d="M19.9648 6.21748V0.114746C21.9974 2.16373 24.0293 4.21155 26.0192 6.21748H19.9648Z" fill="#B18123"/>
<path d="M21.2811 8.94861H15.1426V2.87536L15.2093 2.83618C17.2407 4.85918 19.2718 6.88256 21.3032 8.90555L21.2815 8.94861H21.2811Z" fill="#B18123"/>
</g>
<defs>
<clipPath id="clip0_136_2117">
<rect width="26.1915" height="28.9647" fill="white"/>
</clipPath>
</defs>
</svg>
