<svg width="34" height="29" viewBox="0 0 34 29" fill="none" xmlns="http://www.w3.org/2000/svg">
<g clip-path="url(#clip0_136_2112)">
<path d="M16.9393 28.996C12.6729 28.996 8.40563 29.0038 4.13931 28.9931C1.74068 28.9873 -0.114158 27.2012 0.00547705 24.9395C0.0410709 24.2745 0.247713 23.5496 0.594754 22.9803C4.87294 15.9536 9.1798 8.94423 13.5084 1.94746C15.1101 -0.641895 18.7951 -0.652526 20.3948 1.932C24.7254 8.92683 29.0333 15.9362 33.3223 22.9552C34.9982 25.6982 33.0643 28.9777 29.7887 28.9902C25.5055 29.0067 21.2224 28.9941 16.9393 28.9941V28.996ZM16.9422 27.6893C21.1759 27.6893 25.4096 27.6912 29.6433 27.6854C29.9696 27.6854 30.3087 27.6748 30.6202 27.5907C32.4246 27.1055 33.1454 25.1656 32.1319 23.5148C27.8864 16.6011 23.6349 9.69039 19.3824 2.78062C18.1593 0.793414 15.7429 0.802113 14.5149 2.79705C10.2822 9.67976 6.05545 16.5673 1.81582 23.4471C1.22259 24.4108 1.09208 25.3812 1.67444 26.369C2.24789 27.3403 3.15455 27.7018 4.2896 27.697C8.50648 27.6777 12.7244 27.6893 16.9412 27.6893H16.9422Z" fill="#E31A1A"/>
<path d="M16.9797 26.4252C12.7618 26.4252 8.54391 26.4203 4.32604 26.431C3.69425 26.4329 3.1376 26.3276 2.80044 25.7486C2.45934 25.1629 2.60369 24.6177 2.94183 24.0678C7.17157 17.1996 11.3934 10.3265 15.6192 3.45637C16.3588 2.254 17.5531 2.2569 18.2957 3.4641C22.5234 10.3343 26.7482 17.2044 30.973 24.0755C31.4506 24.8526 31.4209 25.5012 30.9028 26.0202C30.5637 26.3594 30.1435 26.429 29.6817 26.4281C25.4471 26.4232 21.2124 26.4252 16.9787 26.4252H16.9797ZM18.6862 10.8707C18.6724 10.6319 18.6763 10.4377 18.6486 10.2473C18.5231 9.37545 17.8853 8.7472 17.0815 8.69501C16.2401 8.63991 15.5302 9.15701 15.3216 10.0095C15.2534 10.2879 15.2069 10.5885 15.2385 10.8687C15.5045 13.2184 15.7883 15.5661 16.074 17.9138C16.1264 18.3469 16.427 18.5469 16.9599 18.5479C17.5146 18.5479 17.8092 18.3304 17.8656 17.8732C17.9526 17.1541 18.0376 16.436 18.1216 15.7169C18.3125 14.0873 18.5013 12.4577 18.6862 10.8716V10.8707ZM14.9825 22.1985C14.9795 23.2897 15.8782 24.1712 16.9807 24.1606C18.0593 24.1499 18.9492 23.2723 18.9541 22.2149C18.9591 21.1353 18.0455 20.2432 16.949 20.2548C15.8585 20.2664 14.9854 21.1295 14.9834 22.1985H14.9825Z" fill="#E31A1A"/>
</g>
<defs>
<clipPath id="clip0_136_2112">
<rect width="33.9388" height="29" fill="white"/>
</clipPath>
</defs>
</svg>
