<svg width="23" height="25" viewBox="0 0 23 25" fill="none" xmlns="http://www.w3.org/2000/svg">
<g clip-path="url(#clip0_136_2091)">
<path d="M2.75118 11.0705H5.56788C5.56788 10.6534 5.56788 10.281 5.56788 9.90748C5.56788 8.62646 5.5657 7.34545 5.57115 6.06443C5.57115 5.87004 5.60935 5.67456 5.63008 5.48017L5.61371 5.49327H8.3442C8.3442 6.2894 8.36384 7.02219 8.33656 7.75389C8.32128 8.16233 8.42059 8.32505 8.87021 8.31631C10.3686 8.28792 11.867 8.28682 13.3654 8.31631C13.8412 8.32614 13.9339 8.15031 13.9241 7.72222C13.9067 6.98506 13.9503 6.24681 13.9678 5.50856L13.9492 5.52494H16.6775V2.68115L16.6633 2.69426H20.1676C20.1676 3.47401 20.1676 4.14345 20.1676 4.81181C20.1676 6.67927 20.1741 8.54674 20.1621 10.4142C20.1599 10.7615 20.245 11.0127 20.5091 11.2682C23.5932 14.2518 23.7842 19.0744 20.962 22.283C18.1442 25.4861 13.3337 25.9098 9.96699 23.2746C9.71053 23.0736 9.32529 22.9426 8.9979 22.9393C6.44421 22.912 3.88943 22.9251 1.33465 22.9229C0.341549 22.9229 -3.43495e-05 22.5789 -0.00112567 21.5775C-0.00439963 19.2022 -0.00221699 16.828 -0.00221699 14.4527C-0.00221699 14.2911 -0.00221699 14.1295 -0.00221699 13.8903H2.76537V11.0563L2.75118 11.0705ZM14.9783 23.6208C18.6255 23.6088 21.5677 20.6394 21.5557 16.9842C21.5437 13.3268 18.584 10.3803 14.9336 10.3935C11.2798 10.4066 8.35838 13.3541 8.35838 17.0279C8.35838 20.6722 11.33 23.6328 14.9772 23.6208H14.9783Z" fill="#3965FF"/>
<path d="M13.9678 5.50954H11.1719V2.69196H13.9646L13.9526 2.68213C13.9526 3.63006 13.9515 4.5769 13.9504 5.52483L13.9689 5.50844L13.9678 5.50954Z" fill="#3965FF"/>
<path d="M5.63023 5.48118H2.82227V2.76953H5.61168C5.61168 3.69999 5.61168 4.59877 5.61277 5.49537C5.61386 5.49537 5.63023 5.48118 5.63023 5.48118Z" fill="#3965FF"/>
<path d="M13.9642 2.69199V0H16.6652C16.6652 0.902062 16.6652 1.79757 16.6652 2.69417L16.6794 2.68107C15.7703 2.68107 14.8612 2.68216 13.9521 2.68325L13.9642 2.69308V2.69199Z" fill="#3965FF"/>
<path d="M2.76552 11.0563H0.0361328V8.3501H2.75134C2.75134 9.2467 2.75134 10.1586 2.75134 11.0705L2.76552 11.0563Z" fill="#3965FF"/>
<path d="M14.9284 15.2838C15.8953 15.274 16.669 16.0122 16.6865 16.9645C16.705 17.9441 15.9324 18.7326 14.9557 18.7315C14.0062 18.7315 13.2215 17.9583 13.2139 17.0191C13.2074 16.0755 13.9789 15.2936 14.9284 15.2838Z" fill="#3965FF"/>
</g>
<defs>
<clipPath id="clip0_136_2091">
<rect width="22.9592" height="25" fill="white"/>
</clipPath>
</defs>
</svg>
