<svg width="26" height="25" viewBox="0 0 26 25" fill="none" xmlns="http://www.w3.org/2000/svg">
<g clip-path="url(#clip0_136_2084)">
<path d="M8.99172 9.55435C9.0513 9.55435 9.10547 9.54891 9.16505 9.54348C9.12172 9.21739 9.0838 8.8913 9.0838 8.55435C9.0838 5.78261 10.7088 3.40217 13.0488 2.29348C12.2146 0.918478 10.7088 0 8.99172 0C6.36464 0 4.23047 2.13587 4.23047 4.77717C4.23047 7.41304 6.35922 9.55435 8.99172 9.55435Z" fill="#01B574"/>
<path d="M15.9683 13.8587C18.8881 13.8587 21.255 11.4839 21.255 8.55435C21.255 5.62484 18.8881 3.25 15.9683 3.25C13.0486 3.25 10.6816 5.62484 10.6816 8.55435C10.6816 11.4839 13.0486 13.8587 15.9683 13.8587Z" fill="#01B574"/>
<path d="M20.5779 13.7825C19.3484 14.8749 17.7342 15.5434 15.9629 15.5434C14.1917 15.5434 12.5938 14.8804 11.3642 13.7988C8.16294 15.5543 5.97461 19.0706 5.97461 23.1249C5.97461 23.7662 6.02878 24.3858 6.13711 24.9945H25.8375C25.9404 24.3858 26 23.7662 26 23.1249C26 19.0543 23.8009 15.5271 20.5779 13.7771V13.7825Z" fill="#01B574"/>
<path d="M10.3783 12.6087C10.0371 12.125 9.75542 11.6033 9.54417 11.0435C9.36 11.0598 9.17583 11.0707 8.99167 11.0707C7.40458 11.0707 5.95833 10.4728 4.85333 9.5C1.97167 11.0815 0 14.2446 0 17.8967C0 18.4728 0.04875 19.0326 0.14625 19.5815H5.05375C5.76333 16.5652 7.72958 14.0435 10.3783 12.6087Z" fill="#01B574"/>
</g>
<defs>
<clipPath id="clip0_136_2084">
<rect width="26" height="25" fill="white"/>
</clipPath>
</defs>
</svg>
